<svg version="1" xmlns="http://www.w3.org/2000/svg" width="2555.054" height="379.778" viewBox="0 0 2555.054 379.778"><path d="M469.396 81.826c0 25.457-13.422 49.27-40.264 71.436-16.105 13.337-40.613 28.055-73.514 44.16 13.333 23.034 20.002 43.9 20.002 62.605 0 38.62-24.938 67.193-74.812 85.723-35.677 13.162-77.24 19.742-124.688 19.742H41.043l93.775-266.52h93.516L148.586 323.93h13.248c30.303 0 55.935-3.463 76.89-10.39 31-10.563 46.5-27.796 46.5-51.694 0-7.62-3.467-16.756-10.392-27.406-6.928-10.65-10.39-18.398-10.39-23.248 0-2.424.17-4.156.52-5.195 3.46-7.62 12.898-15.066 28.313-22.34 21.3-10.216 36.887-19.653 46.758-28.314 16.625-14.373 24.938-30.998 24.938-49.875 0-26.667-20.35-40.004-61.044-40.004H0L40.004 0H343.15c39.83 0 69.703 5.37 89.62 16.105 24.418 13.163 36.626 35.07 36.626 65.72zM759.295 323.928c-3.637 13.336-11.95 23.812-24.938 31.432-11.604 6.754-24.852 10.13-39.744 10.13h-144.69c-84.163 0-126.245-25.368-126.245-76.11 0-32.557 14.373-58.1 43.12-76.63 24.764-15.933 54.203-23.9 88.32-23.9h37.667c21.99 0 41.303 3.377 57.928 10.13 22.166 9.007 33.77 22.69 34.81 41.044.864 18.532-8.054 33.943-26.757 46.238h-85.982l28.055-55.85h-54.812l-21.3 62.604c-1.214 3.637-1.82 6.928-1.82 9.87 0 14.028 11.256 21.042 33.77 21.042h202.617z"/><path fill="#0F91AA" d="M1544.566 62.863c0 17.145-6.8 31.78-20.39 43.9-13.6 12.124-29.92 18.184-48.968 18.184-19.05 0-35.328-6.06-48.836-18.184-13.508-12.12-20.262-26.756-20.262-43.9 0-3.982.69-9.177 2.078-15.586-7.793-.69-12.73-1.04-14.807-1.04-26.324 0-39.483 11-39.483 32.99 0 11.26 7.75 36.458 23.25 75.593 15.496 39.14 23.248 69.792 23.248 91.958 0 47.45-26.236 83.04-78.708 106.764-39.14 17.488-84.943 26.236-137.416 26.236-47.97 0-90.487-6.67-127.544-20.002-52.127-18.703-78.19-47.45-78.19-86.242 0-56.455 48.058-84.684 144.17-84.684h98.972l18.963 41.563h-77.15c-19.396 0-36.28 3.377-50.653 10.13-18.703 8.833-28.055 21.91-28.055 39.226 0 19.57 12.9 34.895 38.705 45.978 19.913 8.486 41.213 12.73 63.902 12.73 28.744 0 52.73-6.32 71.954-18.964 22.34-14.547 33.51-35.414 33.51-62.604 0-18.703-7.103-45.545-21.3-80.528-14.203-34.98-21.302-62.17-21.302-81.566 0-63.208 53.77-94.814 161.314-94.814h64.162c17.664 0 33.422 5.975 47.277 17.924 14.373 12.64 21.56 27.622 21.56 44.937zM1704.062 323.928c-8.14 27.71-29.787 41.562-64.94 41.562h-132.48c-25.632 0-38.446-9.004-38.446-27.016 0-4.502.955-9.352 2.857-14.547l32.99-93.516h-42.602l16.366-41.562c30.305-7.793 52.818-17.75 67.54-29.873 16.624-13.678 34.374-38.445 53.25-74.293h50.655l-36.626 104.166h67.02c-10.738 27.71-32.56 41.563-65.46 41.563h-17.146l-32.47 93.517h139.494zM2030.587 323.928c-3.637 13.336-11.95 23.812-24.938 31.432-11.605 6.754-24.853 10.13-39.745 10.13h-144.69c-84.163 0-126.245-25.368-126.245-76.11 0-32.557 14.373-58.1 43.12-76.63 24.765-15.933 54.204-23.9 88.32-23.9h37.667c21.992 0 41.303 3.377 57.928 10.13 22.166 9.007 33.77 22.69 34.81 41.044.864 18.532-8.054 33.943-26.757 46.238h-85.982l28.055-55.85h-54.81l-21.3 62.604c-1.214 3.637-1.82 6.928-1.82 9.87 0 14.028 11.257 21.042 33.77 21.042h202.617zM2355.554 323.928c-3.637 13.336-11.95 23.812-24.938 31.432-11.604 6.754-24.852 10.13-39.744 10.13h-144.69c-84.163 0-126.245-25.368-126.245-76.11 0-32.557 14.373-58.1 43.12-76.63 24.765-15.933 54.204-23.9 88.32-23.9h37.667c21.992 0 41.303 3.377 57.928 10.13 22.166 9.007 33.77 22.69 34.81 41.044.864 18.532-8.054 33.943-26.757 46.238h-85.982l28.055-55.85h-54.81l-21.302 62.604c-1.213 3.637-1.818 6.928-1.818 9.87 0 14.028 11.256 21.042 33.77 21.042h202.616zM2555.054 323.928c-4.33 15.24-14.287 26.496-29.873 33.77-10.91 5.195-22.6 7.793-35.067 7.793h-100.01c-25.63 0-38.445-8.743-38.445-26.235 0-4.502.955-9.61 2.857-15.326l96.373-271.716h91.957l-96.893 271.715h109.102z"/></svg>