<?xml version="1.0" encoding="utf-8"?>
<!-- Generator: Adobe Illustrator 15.0.0, SVG Export Plug-In . SVG Version: 6.00 Build 0)  -->
<!DOCTYPE svg PUBLIC "-//W3C//DTD SVG 1.0//EN" "http://www.w3.org/TR/2001/REC-SVG-20010904/DTD/svg10.dtd">
<svg version="1.0" id="Calque_1" xmlns="http://www.w3.org/2000/svg" xmlns:xlink="http://www.w3.org/1999/xlink" x="0px" y="0px"
	 width="2555.054px" height="379.778px" viewBox="0 0 2555.054 379.778" enable-background="new 0 0 2555.054 379.778"
	 xml:space="preserve">
<g>
	<path d="M469.396,81.826c0,25.457-13.422,49.27-40.264,71.436c-16.105,13.337-40.613,28.055-73.514,44.161
		c13.333,23.033,20.002,43.9,20.002,62.604c0,38.619-24.938,67.193-74.812,85.723c-35.677,13.162-77.24,19.742-124.688,19.742
		H41.043l93.775-266.52h93.516l-79.748,224.958h13.248c30.303,0,55.935-3.463,76.891-10.391
		c30.998-10.562,46.498-27.795,46.498-51.693c0-7.619-3.466-16.756-10.391-27.406c-6.928-10.65-10.391-18.398-10.391-23.248
		c0-2.424,0.17-4.156,0.52-5.195c3.462-7.619,12.899-15.066,28.314-22.34c21.301-10.216,36.887-19.653,46.758-28.314
		c16.625-14.373,24.938-30.998,24.938-49.875c0-26.667-20.351-40.004-61.045-40.004H0L40.004,0H343.15
		c39.83,0,69.703,5.37,89.619,16.105C457.188,29.268,469.396,51.174,469.396,81.826z"/>
	<path d="M759.295,323.928c-3.637,13.336-11.949,23.812-24.938,31.432c-11.604,6.754-24.852,10.131-39.744,10.131H549.924
		c-84.164,0-126.246-25.369-126.246-76.111c0-32.557,14.373-58.099,43.121-76.631c24.763-15.932,54.202-23.899,88.32-23.899h37.666
		c21.991,0,41.303,3.377,57.928,10.131c22.166,9.006,33.77,22.688,34.809,41.043c0.865,18.532-8.053,33.943-26.756,46.238h-85.982
		l28.055-55.85h-54.811l-21.301,62.604c-1.213,3.637-1.818,6.928-1.818,9.871c0,14.027,11.255,21.041,33.77,21.041H759.295z"/>
	<path fill="#0F91AA" d="M1544.566,62.863c0,17.145-6.799,31.781-20.391,43.9c-13.598,12.124-29.918,18.184-48.967,18.184
		c-19.051,0-35.328-6.06-48.836-18.184c-13.508-12.12-20.262-26.756-20.262-43.9c0-3.982,0.69-9.177,2.078-15.586
		c-7.793-0.69-12.729-1.039-14.807-1.039c-26.325,0-39.484,11-39.484,32.99c0,11.259,7.749,36.457,23.25,75.592
		c15.496,39.139,23.248,69.792,23.248,91.958c0,47.451-26.236,83.039-78.708,106.764c-39.139,17.488-84.943,26.236-137.416,26.236
		c-47.971,0-90.488-6.67-127.545-20.002c-52.127-18.703-78.189-47.449-78.189-86.242c0-56.455,48.057-84.684,144.17-84.684h98.971
		l18.963,41.563h-77.15c-19.397,0-36.282,3.377-50.654,10.131c-18.703,8.832-28.055,21.909-28.055,39.225
		c0,19.57,12.899,34.896,38.705,45.979c19.913,8.486,41.213,12.729,63.902,12.729c28.745,0,52.732-6.32,71.955-18.963
		c22.34-14.547,33.51-35.414,33.51-62.604c0-18.703-7.103-45.545-21.301-80.528c-14.202-34.979-21.301-62.169-21.301-81.566
		c0-63.208,53.771-94.814,161.314-94.814h64.162c17.664,0,33.422,5.975,47.277,17.924
		C1537.378,30.567,1544.566,45.548,1544.566,62.863z"/>
	<path fill="#0F91AA" d="M1704.062,323.928c-8.141,27.709-29.787,41.562-64.941,41.562h-132.48
		c-25.631,0-38.445-9.004-38.445-27.016c0-4.502,0.955-9.352,2.857-14.547l32.99-93.516h-42.602l16.365-41.563
		c30.305-7.793,52.818-17.75,67.539-29.873c16.625-13.678,34.375-38.445,53.252-74.293h50.654l-36.627,104.166h67.02
		c-10.738,27.709-32.559,41.563-65.461,41.563h-17.145l-32.471,93.516H1704.062z"/>
	<path fill="#0F91AA" d="M2030.587,323.928c-3.637,13.336-11.949,23.812-24.938,31.432c-11.604,6.754-24.852,10.131-39.744,10.131
		h-144.689c-84.164,0-126.246-25.369-126.246-76.111c0-32.557,14.373-58.099,43.121-76.631
		c24.764-15.932,54.203-23.899,88.32-23.899h37.666c21.992,0,41.303,3.377,57.928,10.131c22.166,9.006,33.77,22.688,34.809,41.043
		c0.865,18.532-8.053,33.943-26.756,46.238h-85.982l28.055-55.85h-54.811l-21.301,62.604c-1.213,3.637-1.818,6.928-1.818,9.871
		c0,14.027,11.256,21.041,33.77,21.041H2030.587z"/>
	<path fill="#0F91AA" d="M2355.554,323.928c-3.637,13.336-11.949,23.812-24.938,31.432c-11.604,6.754-24.852,10.131-39.744,10.131
		h-144.689c-84.164,0-126.246-25.369-126.246-76.111c0-32.557,14.373-58.099,43.121-76.631
		c24.764-15.932,54.203-23.899,88.32-23.899h37.666c21.992,0,41.303,3.377,57.928,10.131c22.166,9.006,33.77,22.688,34.809,41.043
		c0.865,18.532-8.053,33.943-26.756,46.238h-85.982l28.055-55.85h-54.811l-21.301,62.604c-1.213,3.637-1.818,6.928-1.818,9.871
		c0,14.027,11.256,21.041,33.77,21.041H2355.554z"/>
	<path fill="#0F91AA" d="M2555.054,323.928c-4.33,15.24-14.287,26.496-29.873,33.77c-10.91,5.195-22.6,7.793-35.068,7.793h-100.01
		c-25.631,0-38.445-8.744-38.445-26.236c0-4.502,0.955-9.611,2.857-15.326l96.373-271.715h91.957l-96.893,271.715H2555.054z"/>
</g>
</svg>
